<svg viewBox="0 0 512 512" xmlns="http://www.w3.org/2000/svg">
  <path d="m416 512h-320c-53.023438 0-96-42.976562-96-96v-320c0-53.023438 42.976562-96 96-96h320c53.023438 0 96 42.976562 96 96v320c0 53.023438-42.976562 96-96 96zm0 0"
    fill="#f5e6fe"/>
  <path
    d="m206.527344 250.878906c-3.710938 0-7.3125-1.933594-9.28125-5.390625-2.910156-5.121093-1.117188-11.632812 3.984375-14.542969l98.976562-56.433593c5.105469-2.945313 11.632813-1.136719 14.5625 3.984375 2.910157 5.121094 1.117188 11.632812-3.984375 14.542968l-98.976562 56.433594c-1.679688.960938-3.488282 1.40625-5.28125 1.40625zm0 0"
    fill="#d9a4fc"/>
  <path
    d="m305.472656 338.878906c-1.792968 0-3.601562-.445312-5.265625-1.40625l-98.976562-56.433594c-5.117188-2.910156-6.910157-9.4375-3.984375-14.542968 2.914062-5.121094 9.425781-6.929688 14.5625-3.984375l98.976562 56.433593c5.117188 2.910157 6.910156 9.4375 3.984375 14.542969-1.984375 3.457031-5.585937 5.390625-9.296875 5.390625zm0 0"
    fill="#d9a4fc"/>
  <g fill="#be63f9">
    <path
      d="m373.34375 341.328125c0 23.566406-19.105469 42.671875-42.671875 42.671875s-42.671875-19.105469-42.671875-42.671875 19.105469-42.671875 42.671875-42.671875 42.671875 19.105469 42.671875 42.671875zm0 0"/>
    <path
      d="m373.34375 170.671875c0 23.566406-19.105469 42.671875-42.671875 42.671875s-42.671875-19.105469-42.671875-42.671875 19.105469-42.671875 42.671875-42.671875 42.671875 19.105469 42.671875 42.671875zm0 0"/>
    <path
      d="m224 256c0 23.566406-19.105469 42.671875-42.671875 42.671875s-42.671875-19.105469-42.671875-42.671875 19.105469-42.671875 42.671875-42.671875 42.671875 19.105469 42.671875 42.671875zm0 0"/>
  </g>
</svg>