<svg fill="none" stroke-linecap="square" stroke-miterlimit="10" viewBox="0 0 960 720" xmlns="http://www.w3.org/2000/svg">
  <defs/>
  <clipPath id="a">
    <path d="M0 0h960v720H0V0z"/>
  </clipPath>
  <g clip-path="url(#a)">
    <path d="M0 0h960v720H0z" fill="none"/>
    <path d="M1015-47.496H-59.866v800.535H1015z" fill="#ff8d5c" fill-opacity=".862"/>
    <path d="M1112.783 67.638l36.52-36.519 36.518 36.52h-18.26v76.248h-36.518V67.638z" fill="#38761d"/>
    <path d="M1089.482 110.869l59.82-69.055 59.82 69.055z" fill="#38761d"/>
    <path d="M153.698-7.32V720.9" fill="none"/>
    <path d="M153.698-7.32V720.9" stroke="#fff" stroke-linecap="butt" stroke-linejoin="round" stroke-width="24"/>
    <path d="M232.824-4.11v728.22" fill="none"/>
    <path d="M232.824-4.11v728.22" stroke="#fff" stroke-linecap="butt" stroke-linejoin="round" stroke-width="24"/>
    <path d="M418.076 0v728.22" fill="none"/>
    <path d="M418.076 0v728.22" stroke="#fff" stroke-linecap="butt" stroke-linejoin="round" stroke-width="24"/>
    <path d="M163.529 31.118V0l59.464 31.118z" fill="#fff"/>
    <path d="M163.529 31.118V0l59.464 31.118z" stroke="#fff" stroke-linecap="butt" stroke-linejoin="round" stroke-width="2"/>
    <path d="M163.528 62.236V31.118l59.464 31.118z" fill="#fff"/>
    <path d="M163.528 62.236V31.118l59.464 31.118z" stroke="#fff" stroke-linecap="butt" stroke-linejoin="round" stroke-width="2"/>
    <path d="M163.528 91.833V60.715l59.464 31.118z" fill="#fff"/>
    <path d="M163.528 91.833V60.715l59.464 31.118z" stroke="#fff" stroke-linecap="butt" stroke-linejoin="round" stroke-width="2"/>
    <path d="M163.528 122.953V91.835l59.464 31.118z" fill="#fff"/>
    <path d="M163.528 122.953V91.835l59.464 31.118z" stroke="#fff" stroke-linecap="butt" stroke-linejoin="round" stroke-width="2"/>
    <path d="M301.633 280.819v31.118l-59.465-31.118z" fill="#fff"/>
    <path d="M301.633 280.819v31.118l-59.465-31.118z" stroke="#fff" stroke-linecap="butt" stroke-linejoin="round" stroke-width="2"/>
    <path d="M301.633-7.32V720.9" fill="none"/>
    <path d="M301.633-7.32V720.9" stroke="#fff" stroke-linecap="butt" stroke-linejoin="round" stroke-width="12"/>
    <path d="M326.57-4.11v728.22" fill="none"/>
    <path d="M326.57-4.11v728.22" stroke="#fff" stroke-linecap="butt" stroke-linejoin="round" stroke-width="16"/>
    <path d="M296.961 305.052v31.118l-59.465-31.118z" fill="#fff"/>
    <path d="M296.961 305.052v31.118l-59.465-31.118z" stroke="#fff" stroke-linecap="butt" stroke-linejoin="round" stroke-width="2"/>
    <path d="M296.961 336.17v31.118l-59.465-31.118z" fill="#fff"/>
    <path d="M296.961 336.17v31.118l-59.465-31.118z" stroke="#fff" stroke-linecap="butt" stroke-linejoin="round" stroke-width="2"/>
    <path d="M296.961 363.582V394.7l-59.465-31.118z" fill="#fff"/>
    <path d="M296.961 363.582V394.7l-59.465-31.118z" stroke="#fff" stroke-linecap="butt" stroke-linejoin="round" stroke-width="2"/>
    <path d="M411.819 464.186v36.693l-78.992-36.693z" fill="#fff"/>
    <path d="M411.819 464.186v36.693l-78.992-36.693z" stroke="#fff" stroke-linecap="butt" stroke-linejoin="round" stroke-width="2"/>
    <path d="M410.971 433.549v36.692l-84.41-36.692z" fill="#fff"/>
    <path d="M410.971 433.549v36.692l-84.41-36.692z" stroke="#fff" stroke-linecap="butt" stroke-linejoin="round" stroke-width="2"/>
    <path d="M332.827 436.005v-39.15l84.41 39.15z" fill="#fff"/>
    <path d="M332.827 436.005v-39.15l84.41 39.15z" stroke="#fff" stroke-linecap="butt" stroke-linejoin="round" stroke-width="2"/>
    <path d="M410.979 222.047v36.693l-84.41-36.693z" fill="#fff"/>
    <path d="M410.979 222.047v36.693l-84.41-36.693z" stroke="#fff" stroke-linecap="butt" stroke-linejoin="round" stroke-width="2"/>
    <path d="M332.835 224.504v-39.15l84.41 39.15z" fill="#fff"/>
    <path d="M332.835 224.504v-39.15l84.41 39.15z" stroke="#fff" stroke-linecap="butt" stroke-linejoin="round" stroke-width="2"/>
    <path d="M239.008 600.35v-36.693l-98.826 36.693z" fill="#fff"/>
    <path d="M239.008 600.35v-36.693l-98.826 36.693z" stroke="#fff" stroke-linecap="butt" stroke-linejoin="round" stroke-width="2"/>
    <path d="M147.517 597.893v39.15l98.827-39.15z" fill="#fff"/>
    <path d="M147.517 597.893v39.15l98.827-39.15z" stroke="#fff" stroke-linecap="butt" stroke-linejoin="round" stroke-width="2"/>
    <path d="M163.529 248.008L193.26 223l29.732 25.008z" fill="#fff"/>
    <path d="M163.529 248.008L193.26 223l29.732 25.008z" stroke="#fff" stroke-linecap="butt" stroke-linejoin="round" stroke-width="2"/>
    <path d="M163.528 223l29.732-25.008L222.992 223z" fill="#fff"/>
    <path d="M163.528 223l29.732-25.008L222.992 223z" stroke="#fff" stroke-linecap="butt" stroke-linejoin="round" stroke-width="2"/>
    <path d="M163.528 273.016l29.732-25.008 29.732 25.008z" fill="#fff"/>
    <path d="M163.528 273.016l29.732-25.008 29.732 25.008z" stroke="#fff" stroke-linecap="butt" stroke-linejoin="round" stroke-width="2"/>
    <path d="M163.528 298.024l29.732-25.008 29.732 25.008z" fill="#fff"/>
    <path d="M163.528 298.024l29.732-25.008 29.732 25.008z" stroke="#fff" stroke-linecap="butt" stroke-linejoin="round" stroke-width="2"/>
    <path d="M163.528 325.45l29.732-25.008 29.732 25.008z" fill="#fff"/>
    <path d="M163.528 325.45l29.732-25.008 29.732 25.008z" stroke="#fff" stroke-linecap="butt" stroke-linejoin="round" stroke-width="2"/>
    <path d="M408.408 547.992L370.613 589l-37.795-41.008z" fill="#fff"/>
    <path d="M408.408 547.992L370.613 589l-37.795-41.008z" stroke="#fff" stroke-linecap="butt" stroke-linejoin="round" stroke-width="2"/>
    <path d="M410.117 589l-37.795 41.008L334.526 589z" fill="#fff"/>
    <path d="M410.117 589l-37.795 41.008L334.526 589z" stroke="#fff" stroke-linecap="butt" stroke-linejoin="round" stroke-width="2"/>
    <path d="M410.117 630.008l-37.795 41.008-37.796-41.008z" fill="#fff"/>
    <path d="M410.117 630.008l-37.795 41.008-37.796-41.008z" stroke="#fff" stroke-linecap="butt" stroke-linejoin="round" stroke-width="2"/>
    <path d="M410.117 671.016l-37.795 41.008-37.796-41.008z" fill="#fff"/>
    <path d="M410.117 671.016l-37.795 41.008-37.796-41.008z" stroke="#fff" stroke-linecap="butt" stroke-linejoin="round" stroke-width="2"/>
    <path d="M410.117 712.024l-37.795 41.007-37.796-41.007z" fill="#fff"/>
    <path d="M410.117 712.024l-37.795 41.007-37.796-41.007z" stroke="#fff" stroke-linecap="butt" stroke-linejoin="round" stroke-width="2"/>
    <path d="M410.971 117.378v36.693l-78.992-36.693z" fill="#fff"/>
    <path d="M410.971 117.378v36.693l-78.992-36.693z" stroke="#fff" stroke-linecap="butt" stroke-linejoin="round" stroke-width="2"/>
    <path d="M411.819 80.685v36.693l-78.992-36.693z" fill="#fff"/>
    <path d="M411.819 80.685v36.693l-78.992-36.693z" stroke="#fff" stroke-linecap="butt" stroke-linejoin="round" stroke-width="2"/>
    <path d="M411.819 43.992v36.693l-78.992-36.693z" fill="#fff"/>
    <path d="M411.819 43.992v36.693l-78.992-36.693z" stroke="#fff" stroke-linecap="butt" stroke-linejoin="round" stroke-width="2"/>
    <path d="M411.819 10.546v36.693l-78.992-36.693z" fill="#fff"/>
    <path d="M411.819 10.546v36.693l-78.992-36.693z" stroke="#fff" stroke-linecap="butt" stroke-linejoin="round" stroke-width="2"/>
    <path d="M411.819-23.984v36.693l-78.992-36.693z" fill="#fff"/>
    <path d="M411.819-23.984v36.693l-78.992-36.693z" stroke="#fff" stroke-linecap="butt" stroke-linejoin="round" stroke-width="2"/>
    <path d="M300.04 529l-62.532-40.646 62.533-40.645z" fill="none"/>
    <path d="M300.04 529l-62.532-40.646 62.533-40.645z" stroke="#fff" stroke-linecap="butt" stroke-miterlimit="8" stroke-width="12"/>
    <path d="M301.647 605.042l-62.533-40.646 62.533-40.645z" fill="none"/>
    <path d="M301.647 605.042l-62.533-40.646 62.533-40.645z" stroke="#fff" stroke-linecap="butt" stroke-miterlimit="8" stroke-width="12"/>
    <path d="M301.647 686.333l-62.533-40.645 62.533-40.646z" fill="none"/>
    <path d="M301.647 686.333l-62.533-40.645 62.533-40.646z" stroke="#fff" stroke-linecap="butt" stroke-miterlimit="8" stroke-width="12"/>
    <path d="M301.647 767.625l-62.533-40.646 62.533-40.646z" fill="none"/>
    <path d="M301.647 767.625l-62.533-40.646 62.533-40.646z" stroke="#fff" stroke-linecap="butt" stroke-miterlimit="8" stroke-width="12"/>
    <path d="M332 243l84 36" fill="none"/>
    <path d="M332 243l84 36" stroke="#fff" stroke-linecap="butt" stroke-linejoin="round" stroke-width="12"/>
    <path d="M224 557l-69.008 25.984" fill="none"/>
    <path d="M224 557l-69.008 25.984" stroke="#fff" stroke-linecap="butt" stroke-linejoin="round" stroke-width="8"/>
    <path d="M231.488 339.93l-75.307.094" fill="none"/>
    <path d="M231.488 339.93l-75.307.094" stroke="#fff" stroke-linecap="butt" stroke-linejoin="round" stroke-width="8"/>
    <path d="M459.633 0v728.22" fill="none"/>
    <path d="M459.633 0v728.22" stroke="#fff" stroke-linecap="butt" stroke-linejoin="round" stroke-width="12"/>
    <path d="M506.633 0v728.22" fill="none"/>
    <path d="M506.633 0v728.22" stroke="#fff" stroke-linecap="butt" stroke-linejoin="round" stroke-width="24"/>
    <path d="M467.081 190.877l32.95 32.513-32.95 32.512z" fill="none"/>
    <path d="M467.081 190.877l32.95 32.513-32.95 32.512z" stroke="#fff" stroke-linecap="butt" stroke-miterlimit="8" stroke-width="8"/>
    <path d="M466.235 130.051l32.949 32.513-32.95 32.512z" fill="none"/>
    <path d="M466.235 130.051l32.949 32.513-32.95 32.512z" stroke="#fff" stroke-linecap="butt" stroke-miterlimit="8" stroke-width="8"/>
    <path d="M466.235 65.026l32.949 32.513-32.95 32.512z" fill="none"/>
    <path d="M466.235 65.026l32.949 32.513-32.95 32.512z" stroke="#fff" stroke-linecap="butt" stroke-miterlimit="8" stroke-width="8"/>
    <path d="M466.235.001l32.949 32.513-32.95 32.512z" fill="none"/>
    <path d="M466.235.001l32.949 32.513-32.95 32.512z" stroke="#fff" stroke-linecap="butt" stroke-miterlimit="8" stroke-width="8"/>
    <path d="M462.928 420.118V389l40.41 31.118z" fill="#fff"/>
    <path d="M462.928 420.118V389l40.41 31.118z" stroke="#fff" stroke-linecap="butt" stroke-linejoin="round" stroke-width="2"/>
    <path d="M462.928 451.236v-31.118l40.41 31.118z" fill="#fff"/>
    <path d="M462.928 451.236v-31.118l40.41 31.118z" stroke="#fff" stroke-linecap="butt" stroke-linejoin="round" stroke-width="2"/>
    <path d="M462.928 482.354v-31.118l40.41 31.118z" fill="#fff"/>
    <path d="M462.928 482.354v-31.118l40.41 31.118z" stroke="#fff" stroke-linecap="butt" stroke-linejoin="round" stroke-width="2"/>
    <path d="M462.928 513.472v-31.118l40.41 31.118z" fill="#fff"/>
    <path d="M462.928 513.472v-31.118l40.41 31.118z" stroke="#fff" stroke-linecap="butt" stroke-linejoin="round" stroke-width="2"/>
    <path d="M462.928 544.59v-31.118l40.41 31.119z" fill="#fff"/>
    <path d="M462.928 544.59v-31.118l40.41 31.119z" stroke="#fff" stroke-linecap="butt" stroke-linejoin="round" stroke-width="2"/>
    <path d="M462.928 575.709V544.59l40.41 31.118z" fill="#fff"/>
    <path d="M462.928 575.709V544.59l40.41 31.118z" stroke="#fff" stroke-linecap="butt" stroke-linejoin="round" stroke-width="2"/>
    <path d="M462.928 606.827v-31.118l40.41 31.118z" fill="#fff"/>
    <path d="M462.928 606.827v-31.118l40.41 31.118z" stroke="#fff" stroke-linecap="butt" stroke-linejoin="round" stroke-width="2"/>
    <path d="M462.928 637.945v-31.118l40.41 31.118z" fill="#fff"/>
    <path d="M462.928 637.945v-31.118l40.41 31.118z" stroke="#fff" stroke-linecap="butt" stroke-linejoin="round" stroke-width="2"/>
    <path d="M462.928 669.063v-31.118l40.41 31.118z" fill="#fff"/>
    <path d="M462.928 669.063v-31.118l40.41 31.118z" stroke="#fff" stroke-linecap="butt" stroke-linejoin="round" stroke-width="2"/>
    <path d="M462.928 700.181v-31.118l40.41 31.118z" fill="#fff"/>
    <path d="M462.928 700.181v-31.118l40.41 31.118z" stroke="#fff" stroke-linecap="butt" stroke-linejoin="round" stroke-width="2"/>
    <path d="M462.928 727.247v-31.118l40.41 31.118z" fill="#fff"/>
    <path d="M462.928 727.247v-31.118l40.41 31.118z" stroke="#fff" stroke-linecap="butt" stroke-linejoin="round" stroke-width="2"/>
    <path d="M460 355l43.622 34.016" fill="none"/>
    <path d="M460 355l43.622 34.016" stroke="#fff" stroke-linecap="butt" stroke-linejoin="round" stroke-width="12"/>
    <path d="M461.323 334.722l43.622 34.016" fill="none"/>
    <path d="M461.323 334.722l43.622 34.016" stroke="#fff" stroke-linecap="butt" stroke-linejoin="round" stroke-width="8"/>
    <path d="M143.868 475.256v48.61l-66.041-48.61z" fill="#fff"/>
    <path d="M143.868 475.256v48.61l-66.041-48.61z" stroke="#fff" stroke-linecap="butt" stroke-linejoin="round" stroke-width="2"/>
    <path d="M143.868 426.646v48.61l-66.041-48.61z" fill="#fff"/>
    <path d="M143.868 426.646v48.61l-66.041-48.61z" stroke="#fff" stroke-linecap="butt" stroke-linejoin="round" stroke-width="2"/>
    <path d="M143.868 378.037v48.61l-66.041-48.61z" fill="#fff"/>
    <path d="M143.868 378.037v48.61l-66.041-48.61z" stroke="#fff" stroke-linecap="butt" stroke-linejoin="round" stroke-width="2"/>
    <path d="M143.868 329.427v48.61l-66.041-48.61z" fill="#fff"/>
    <path d="M143.868 329.427v48.61l-66.041-48.61z" stroke="#fff" stroke-linecap="butt" stroke-linejoin="round" stroke-width="2"/>
    <path d="M78.57-4.11v728.22" fill="none"/>
    <path d="M78.57-4.11v728.22" stroke="#fff" stroke-linecap="butt" stroke-linejoin="round" stroke-width="16"/>
    <path d="M151.497 325.451l-59.874-47.424 59.874-39.536z" fill="none"/>
    <path d="M151.497 325.451l-59.874-47.424 59.874-39.536z" stroke="#fff" stroke-linecap="butt" stroke-miterlimit="8" stroke-width="24"/>
    <path d="M151.492 244.034L91.618 196.61l59.874-39.536z" fill="none"/>
    <path d="M151.492 244.034L91.618 196.61l59.874-39.536z" stroke="#fff" stroke-linecap="butt" stroke-miterlimit="8" stroke-width="24"/>
    <path d="M153.694 163.672L93.82 116.247l59.874-39.536z" fill="none"/>
    <path d="M153.694 163.672L93.82 116.247l59.874-39.536z" stroke="#fff" stroke-linecap="butt" stroke-miterlimit="8" stroke-width="24"/>
    <path d="M921.777 721.314V-6.906" fill="none"/>
    <path d="M921.777 721.314V-6.906" stroke="#fff" stroke-linecap="butt" stroke-linejoin="round" stroke-width="24"/>
    <path d="M819.171 725.424V-2.796" fill="none"/>
    <path d="M819.171 725.424V-2.796" stroke="#fff" stroke-linecap="butt" stroke-linejoin="round" stroke-width="16"/>
    <path d="M914.761 257.127v-36.693l-88.574 36.693z" fill="#fff"/>
    <path d="M914.761 257.127v-36.693l-88.574 36.693z" stroke="#fff" stroke-linecap="butt" stroke-linejoin="round" stroke-width="2"/>
    <path d="M913.81 287.765v-36.693l-94.648 36.693z" fill="#fff"/>
    <path d="M913.81 287.765v-36.693l-94.648 36.693z" stroke="#fff" stroke-linecap="butt" stroke-linejoin="round" stroke-width="2"/>
    <path d="M826.187 285.308v39.15l94.649-39.15z" fill="#fff"/>
    <path d="M826.187 285.308v39.15l94.649-39.15z" stroke="#fff" stroke-linecap="butt" stroke-linejoin="round" stroke-width="2"/>
    <path d="M913.82 499.266v-36.693l-94.649 36.693z" fill="#fff"/>
    <path d="M913.82 499.266v-36.693l-94.649 36.693z" stroke="#fff" stroke-linecap="butt" stroke-linejoin="round" stroke-width="2"/>
    <path d="M826.196 496.81v39.15l94.648-39.15z" fill="#fff"/>
    <path d="M826.196 496.81v39.15l94.648-39.15z" stroke="#fff" stroke-linecap="butt" stroke-linejoin="round" stroke-width="2"/>
    <path d="M910.937 173.322l-42.38-41.008-42.38 41.008z" fill="#fff"/>
    <path d="M910.937 173.322l-42.38-41.008-42.38 41.008z" stroke="#fff" stroke-linecap="butt" stroke-linejoin="round" stroke-width="2"/>
    <path d="M912.853 132.314l-42.38-41.008-42.38 41.008z" fill="#fff"/>
    <path d="M912.853 132.314l-42.38-41.008-42.38 41.008z" stroke="#fff" stroke-linecap="butt" stroke-linejoin="round" stroke-width="2"/>
    <path d="M912.853 91.306l-42.38-41.008-42.38 41.008z" fill="#fff"/>
    <path d="M912.853 91.306l-42.38-41.008-42.38 41.008z" stroke="#fff" stroke-linecap="butt" stroke-linejoin="round" stroke-width="2"/>
    <path d="M912.853 50.298L870.473 9.29l-42.38 41.008z" fill="#fff"/>
    <path d="M912.853 50.298L870.473 9.29l-42.38 41.008z" stroke="#fff" stroke-linecap="butt" stroke-linejoin="round" stroke-width="2"/>
    <path d="M912.853 9.29l-42.38-41.008-42.38 41.008z" fill="#fff"/>
    <path d="M912.853 9.29l-42.38-41.008-42.38 41.008z" stroke="#fff" stroke-linecap="butt" stroke-linejoin="round" stroke-width="2"/>
    <path d="M913.81 603.936v-36.693l-88.573 36.693z" fill="#fff"/>
    <path d="M913.81 603.936v-36.693l-88.573 36.693z" stroke="#fff" stroke-linecap="butt" stroke-linejoin="round" stroke-width="2"/>
    <path d="M914.761 640.629v-36.693l-88.574 36.693z" fill="#fff"/>
    <path d="M914.761 640.629v-36.693l-88.574 36.693z" stroke="#fff" stroke-linecap="butt" stroke-linejoin="round" stroke-width="2"/>
    <path d="M914.761 677.322v-36.693l-88.574 36.693z" fill="#fff"/>
    <path d="M914.761 677.322v-36.693l-88.574 36.693z" stroke="#fff" stroke-linecap="butt" stroke-linejoin="round" stroke-width="2"/>
    <path d="M914.761 710.768v-36.693l-88.574 36.693z" fill="#fff"/>
    <path d="M914.761 710.768v-36.693l-88.574 36.693z" stroke="#fff" stroke-linecap="butt" stroke-linejoin="round" stroke-width="2"/>
    <path d="M914.761 745.298v-36.693l-88.574 36.693z" fill="#fff"/>
    <path d="M914.761 745.298v-36.693l-88.574 36.693z" stroke="#fff" stroke-linecap="butt" stroke-linejoin="round" stroke-width="2"/>
    <path d="M825.26 478.314l94.19-36" fill="none"/>
    <path d="M825.26 478.314l94.19-36" stroke="#fff" stroke-linecap="butt" stroke-linejoin="round" stroke-width="12"/>
    <path d="M540.162 727.449V-.771" fill="none"/>
    <path d="M540.162 727.449V-.771" stroke="#fff" stroke-linecap="butt" stroke-linejoin="round" stroke-width="24"/>
    <path d="M628.886 724.239V-3.981" fill="none"/>
    <path d="M628.886 724.239V-3.981" stroke="#fff" stroke-linecap="butt" stroke-linejoin="round" stroke-width="24"/>
    <path d="M551.186 689.01v31.119l66.677-31.119z" fill="#fff"/>
    <path d="M551.186 689.01v31.119l66.677-31.119z" stroke="#fff" stroke-linecap="butt" stroke-linejoin="round" stroke-width="2"/>
    <path d="M551.184 657.892v31.119l66.678-31.119z" fill="#fff"/>
    <path d="M551.184 657.892v31.119l66.678-31.119z" stroke="#fff" stroke-linecap="butt" stroke-linejoin="round" stroke-width="2"/>
    <path d="M551.184 628.295v31.118l66.678-31.118z" fill="#fff"/>
    <path d="M551.184 628.295v31.118l66.678-31.118z" stroke="#fff" stroke-linecap="butt" stroke-linejoin="round" stroke-width="2"/>
    <path d="M551.184 597.176v31.118l66.678-31.118z" fill="#fff"/>
    <path d="M551.184 597.176v31.118l66.678-31.118z" stroke="#fff" stroke-linecap="butt" stroke-linejoin="round" stroke-width="2"/>
    <path d="M706.042 439.31v-31.118l-66.678 31.118z" fill="#fff"/>
    <path d="M706.042 439.31v-31.118l-66.678 31.118z" stroke="#fff" stroke-linecap="butt" stroke-linejoin="round" stroke-width="2"/>
    <path d="M706.041 727.449V-.771" fill="none"/>
    <path d="M706.041 727.449V-.771" stroke="#fff" stroke-linecap="butt" stroke-linejoin="round" stroke-width="12"/>
    <path d="M700.803 415.076v-31.118l-66.678 31.118z" fill="#fff"/>
    <path d="M700.803 415.076v-31.118l-66.678 31.118z" stroke="#fff" stroke-linecap="butt" stroke-linejoin="round" stroke-width="2"/>
    <path d="M700.803 383.958V352.84l-66.678 31.118z" fill="#fff"/>
    <path d="M700.803 383.958V352.84l-66.678 31.118z" stroke="#fff" stroke-linecap="butt" stroke-linejoin="round" stroke-width="2"/>
    <path d="M700.803 356.546v-31.118l-66.678 31.118z" fill="#fff"/>
    <path d="M700.803 356.546v-31.118l-66.678 31.118z" stroke="#fff" stroke-linecap="butt" stroke-linejoin="round" stroke-width="2"/>
    <path d="M635.82 119.779v36.693l-110.814-36.693z" fill="#fff"/>
    <path d="M635.82 119.779v36.693l-110.814-36.693z" stroke="#fff" stroke-linecap="butt" stroke-linejoin="round" stroke-width="2"/>
    <path d="M533.231 122.235v-39.15l110.815 39.15z" fill="#fff"/>
    <path d="M533.231 122.235v-39.15l110.815 39.15z" stroke="#fff" stroke-linecap="butt" stroke-linejoin="round" stroke-width="2"/>
    <path d="M551.186 472.12l33.338 25.009 33.34-25.008z" fill="#fff"/>
    <path d="M551.186 472.12l33.338 25.009 33.34-25.008z" stroke="#fff" stroke-linecap="butt" stroke-linejoin="round" stroke-width="2"/>
    <path d="M551.184 497.129l33.339 25.007 33.339-25.007z" fill="#fff"/>
    <path d="M551.184 497.129l33.339 25.007 33.339-25.007z" stroke="#fff" stroke-linecap="butt" stroke-linejoin="round" stroke-width="2"/>
    <path d="M551.184 447.113l33.339 25.008 33.339-25.008z" fill="#fff"/>
    <path d="M551.184 447.113l33.339 25.008 33.339-25.008z" stroke="#fff" stroke-linecap="butt" stroke-linejoin="round" stroke-width="2"/>
    <path d="M551.184 422.105l33.339 25.008 33.339-25.008z" fill="#fff"/>
    <path d="M551.184 422.105l33.339 25.008 33.339-25.008z" stroke="#fff" stroke-linecap="butt" stroke-linejoin="round" stroke-width="2"/>
    <path d="M551.184 394.678l33.339 25.008 33.339-25.008z" fill="#fff"/>
    <path d="M551.184 394.678l33.339 25.008 33.339-25.008z" stroke="#fff" stroke-linecap="butt" stroke-linejoin="round" stroke-width="2"/>
    <path d="M704.256 191.129l-70.118 40.645 70.118 40.646z" fill="none"/>
    <path d="M704.256 191.129l-70.118 40.645 70.118 40.646z" stroke="#fff" stroke-linecap="butt" stroke-miterlimit="8" stroke-width="12"/>
    <path d="M706.057 115.087l-70.117 40.645 70.117 40.646z" fill="none"/>
    <path d="M706.057 115.087l-70.117 40.645 70.117 40.646z" stroke="#fff" stroke-linecap="butt" stroke-miterlimit="8" stroke-width="12"/>
    <path d="M706.057 33.795L635.94 74.441l70.117 40.646z" fill="none"/>
    <path d="M706.057 33.795L635.94 74.441l70.117 40.646z" stroke="#fff" stroke-linecap="butt" stroke-miterlimit="8" stroke-width="12"/>
    <path d="M706.057-47.496L635.94-6.85l70.117 40.645z" fill="none"/>
    <path d="M706.057-47.496L635.94-6.85l70.117 40.645z" stroke="#fff" stroke-linecap="butt" stroke-miterlimit="8" stroke-width="12"/>
    <path d="M618.992 163.129l-77.379-25.985" fill="none"/>
    <path d="M618.992 163.129l-77.379-25.985" stroke="#fff" stroke-linecap="butt" stroke-linejoin="round" stroke-width="8"/>
    <path d="M627.388 380.2l-84.442-.095" fill="none"/>
    <path d="M627.388 380.2l-84.442-.095" stroke="#fff" stroke-linecap="butt" stroke-linejoin="round" stroke-width="8"/>
    <path d="M736.259 720.9V-7.32" fill="none"/>
    <path d="M736.259 720.9V-7.32" stroke="#fff" stroke-linecap="butt" stroke-linejoin="round" stroke-width="12"/>
    <path d="M788.96 720.9V-7.32" fill="none"/>
    <path d="M788.96 720.9V-7.32" stroke="#fff" stroke-linecap="butt" stroke-linejoin="round" stroke-width="24"/>
    <path d="M744.611 530.023l36.946-32.512-36.946-32.513z" fill="none"/>
    <path d="M744.611 530.023l36.946-32.512-36.946-32.513z" stroke="#fff" stroke-linecap="butt" stroke-miterlimit="8" stroke-width="8"/>
    <path d="M743.662 590.85l36.946-32.513-36.946-32.513z" fill="none"/>
    <path d="M743.662 590.85l36.946-32.513-36.946-32.513z" stroke="#fff" stroke-linecap="butt" stroke-miterlimit="8" stroke-width="8"/>
    <path d="M743.662 655.874l36.946-32.512-36.946-32.513z" fill="none"/>
    <path d="M743.662 655.874l36.946-32.512-36.946-32.513z" stroke="#fff" stroke-linecap="butt" stroke-miterlimit="8" stroke-width="8"/>
    <path d="M743.662 720.9l36.946-32.513-36.946-32.513z" fill="none"/>
    <path d="M743.662 720.9l36.946-32.513-36.946-32.513z" stroke="#fff" stroke-linecap="butt" stroke-miterlimit="8" stroke-width="8"/>
    <path d="M739.954 300.782V331.9l45.311-31.118z" fill="#fff"/>
    <path d="M739.954 300.782V331.9l45.311-31.118z" stroke="#fff" stroke-linecap="butt" stroke-linejoin="round" stroke-width="2"/>
    <path d="M739.954 269.664v31.118l45.311-31.118z" fill="#fff"/>
    <path d="M739.954 269.664v31.118l45.311-31.118z" stroke="#fff" stroke-linecap="butt" stroke-linejoin="round" stroke-width="2"/>
    <path d="M739.954 238.546v31.118l45.311-31.118z" fill="#fff"/>
    <path d="M739.954 238.546v31.118l45.311-31.118z" stroke="#fff" stroke-linecap="butt" stroke-linejoin="round" stroke-width="2"/>
    <path d="M739.954 207.428v31.118l45.311-31.118z" fill="#fff"/>
    <path d="M739.954 207.428v31.118l45.311-31.118z" stroke="#fff" stroke-linecap="butt" stroke-linejoin="round" stroke-width="2"/>
    <path d="M739.954 176.31v31.118l45.311-31.118z" fill="#fff"/>
    <path d="M739.954 176.31v31.118l45.311-31.118z" stroke="#fff" stroke-linecap="butt" stroke-linejoin="round" stroke-width="2"/>
    <path d="M739.954 145.192v31.118l45.311-31.118z" fill="#fff"/>
    <path d="M739.954 145.192v31.118l45.311-31.118z" stroke="#fff" stroke-linecap="butt" stroke-linejoin="round" stroke-width="2"/>
    <path d="M739.954 114.073v31.119l45.311-31.119z" fill="#fff"/>
    <path d="M739.954 114.073v31.119l45.311-31.119z" stroke="#fff" stroke-linecap="butt" stroke-linejoin="round" stroke-width="2"/>
    <path d="M739.954 82.955v31.118l45.311-31.118z" fill="#fff"/>
    <path d="M739.954 82.955v31.118l45.311-31.118z" stroke="#fff" stroke-linecap="butt" stroke-linejoin="round" stroke-width="2"/>
    <path d="M739.954 51.837v31.118l45.311-31.118z" fill="#fff"/>
    <path d="M739.954 51.837v31.118l45.311-31.118z" stroke="#fff" stroke-linecap="butt" stroke-linejoin="round" stroke-width="2"/>
    <path d="M739.954 20.72v31.117l45.311-31.118z" fill="#fff"/>
    <path d="M739.954 20.72v31.117l45.311-31.118z" stroke="#fff" stroke-linecap="butt" stroke-linejoin="round" stroke-width="2"/>
    <path d="M739.954-6.346v31.118l45.311-31.118z" fill="#fff"/>
    <path d="M739.954-6.346v31.118l45.311-31.118z" stroke="#fff" stroke-linecap="butt" stroke-linejoin="round" stroke-width="2"/>
    <path d="M736.671 365.9l48.913-34.015" fill="none"/>
    <path d="M736.671 365.9l48.913-34.015" stroke="#fff" stroke-linecap="butt" stroke-linejoin="round" stroke-width="12"/>
    <path d="M738.154 386.178l48.914-34.015" fill="none"/>
    <path d="M738.154 386.178l48.914-34.015" stroke="#fff" stroke-linecap="butt" stroke-linejoin="round" stroke-width="8"/>
    <path d="M974.477-4.11v728.22" fill="none"/>
    <path d="M974.477-4.11v728.22" stroke="#fff" stroke-linecap="butt" stroke-linejoin="round" stroke-width="12"/>
    <path d="M921.776-4.11v728.22" fill="none"/>
    <path d="M921.776-4.11v728.22" stroke="#fff" stroke-linecap="butt" stroke-linejoin="round" stroke-width="24"/>
    <path d="M966.116 186.767l-36.944 32.512 36.944 32.513z" fill="none"/>
    <path d="M966.116 186.767l-36.944 32.512 36.944 32.513z" stroke="#fff" stroke-linecap="butt" stroke-miterlimit="8" stroke-width="8"/>
    <path d="M967.065 125.94l-36.944 32.513 36.944 32.513z" fill="none"/>
    <path d="M967.065 125.94l-36.944 32.513 36.944 32.513z" stroke="#fff" stroke-linecap="butt" stroke-miterlimit="8" stroke-width="8"/>
    <path d="M967.065 60.916l-36.944 32.512 36.944 32.513z" fill="none"/>
    <path d="M967.065 60.916l-36.944 32.512 36.944 32.513z" stroke="#fff" stroke-linecap="butt" stroke-miterlimit="8" stroke-width="8"/>
    <path d="M967.065-4.109l-36.944 32.512 36.944 32.513z" fill="none"/>
    <path d="M967.065-4.109l-36.944 32.512 36.944 32.513z" stroke="#fff" stroke-linecap="butt" stroke-miterlimit="8" stroke-width="8"/>
    <path d="M970.782 416.008V384.89l-45.31 31.118z" fill="#fff"/>
    <path d="M970.782 416.008V384.89l-45.31 31.118z" stroke="#fff" stroke-linecap="butt" stroke-linejoin="round" stroke-width="2"/>
    <path d="M970.782 447.126v-31.118l-45.31 31.118z" fill="#fff"/>
    <path d="M970.782 447.126v-31.118l-45.31 31.118z" stroke="#fff" stroke-linecap="butt" stroke-linejoin="round" stroke-width="2"/>
    <path d="M970.782 478.244v-31.118l-45.31 31.118z" fill="#fff"/>
    <path d="M970.782 478.244v-31.118l-45.31 31.118z" stroke="#fff" stroke-linecap="butt" stroke-linejoin="round" stroke-width="2"/>
    <path d="M970.782 509.362v-31.118l-45.31 31.118z" fill="#fff"/>
    <path d="M970.782 509.362v-31.118l-45.31 31.118z" stroke="#fff" stroke-linecap="butt" stroke-linejoin="round" stroke-width="2"/>
    <path d="M970.782 540.48v-31.118l-45.31 31.118z" fill="#fff"/>
    <path d="M970.782 540.48v-31.118l-45.31 31.118z" stroke="#fff" stroke-linecap="butt" stroke-linejoin="round" stroke-width="2"/>
    <path d="M970.782 571.598V540.48l-45.31 31.118z" fill="#fff"/>
    <path d="M970.782 571.598V540.48l-45.31 31.118z" stroke="#fff" stroke-linecap="butt" stroke-linejoin="round" stroke-width="2"/>
    <path d="M970.782 602.717v-31.119l-45.31 31.119z" fill="#fff"/>
    <path d="M970.782 602.717v-31.119l-45.31 31.119z" stroke="#fff" stroke-linecap="butt" stroke-linejoin="round" stroke-width="2"/>
    <path d="M970.782 633.835v-31.118l-45.31 31.118z" fill="#fff"/>
    <path d="M970.782 633.835v-31.118l-45.31 31.118z" stroke="#fff" stroke-linecap="butt" stroke-linejoin="round" stroke-width="2"/>
    <path d="M970.782 664.953v-31.118l-45.31 31.118z" fill="#fff"/>
    <path d="M970.782 664.953v-31.118l-45.31 31.118z" stroke="#fff" stroke-linecap="butt" stroke-linejoin="round" stroke-width="2"/>
    <path d="M970.782 696.07v-31.117l-45.31 31.118z" fill="#fff"/>
    <path d="M970.782 696.07v-31.117l-45.31 31.118z" stroke="#fff" stroke-linecap="butt" stroke-linejoin="round" stroke-width="2"/>
    <path d="M970.782 723.136v-31.118l-45.31 31.118z" fill="#fff"/>
    <path d="M970.782 723.136v-31.118l-45.31 31.118z" stroke="#fff" stroke-linecap="butt" stroke-linejoin="round" stroke-width="2"/>
    <path d="M974.065 350.89l-48.913 34.016" fill="none"/>
    <path d="M974.065 350.89l-48.913 34.016" stroke="#fff" stroke-linecap="butt" stroke-linejoin="round" stroke-width="12"/>
    <path d="M972.582 330.612l-48.914 34.015" fill="none"/>
    <path d="M972.582 330.612l-48.914 34.015" stroke="#fff" stroke-linecap="butt" stroke-linejoin="round" stroke-width="8"/>
    <path d="M56.633-4.11v728.22" fill="none"/>
    <path d="M56.633-4.11v728.22" stroke="#fff" stroke-linecap="butt" stroke-linejoin="round" stroke-width="16"/>
    <path d="M-1.808 724.109V-4.111" fill="none"/>
    <path d="M-1.808 724.109V-4.111" stroke="#fff" stroke-linecap="butt" stroke-linejoin="round" stroke-width="24"/>
    <path d="M62.47 116.439v36.693l-74.467-36.693z" fill="#fff"/>
    <path d="M62.47 116.439v36.693l-74.467-36.693z" stroke="#fff" stroke-linecap="butt" stroke-linejoin="round" stroke-width="2"/>
    <path d="M-6.47 118.895v-39.15l74.466 39.15z" fill="#fff"/>
    <path d="M-6.47 118.895v-39.15l74.466 39.15z" stroke="#fff" stroke-linecap="butt" stroke-linejoin="round" stroke-width="2"/>
    <path d="M5.6 468.78l22.403 25.009 22.403-25.008z" fill="#fff"/>
    <path d="M5.6 468.78l22.403 25.009 22.403-25.008z" stroke="#fff" stroke-linecap="butt" stroke-linejoin="round" stroke-width="2"/>
    <path d="M5.598 493.789l22.404 25.008 22.403-25.008z" fill="#fff"/>
    <path d="M5.598 493.789l22.404 25.008 22.403-25.008z" stroke="#fff" stroke-linecap="butt" stroke-linejoin="round" stroke-width="2"/>
    <path d="M5.598 443.773l22.404 25.008 22.403-25.008z" fill="#fff"/>
    <path d="M5.598 443.773l22.404 25.008 22.403-25.008z" stroke="#fff" stroke-linecap="butt" stroke-linejoin="round" stroke-width="2"/>
    <path d="M5.598 418.765l22.404 25.008 22.403-25.008z" fill="#fff"/>
    <path d="M5.598 418.765l22.404 25.008 22.403-25.008z" stroke="#fff" stroke-linecap="butt" stroke-linejoin="round" stroke-width="2"/>
    <path d="M5.598 391.339l22.404 25.007 22.403-25.007z" fill="#fff"/>
    <path d="M5.598 391.339l22.404 25.007 22.403-25.007z" stroke="#fff" stroke-linecap="butt" stroke-linejoin="round" stroke-width="2"/>
    <path d="M51.165 159.789L-.838 133.804" fill="none"/>
    <path d="M51.165 159.789L-.838 133.804" stroke="#fff" stroke-linecap="butt" stroke-linejoin="round" stroke-width="8"/>
    <path d="M56.807 376.86l-56.744-.095" fill="none"/>
    <path d="M56.807 376.86l-56.744-.095" stroke="#fff" stroke-linecap="butt" stroke-linejoin="round" stroke-width="8"/>
    <path d="M5.6 685.67v31.119l44.806-31.118z" fill="#fff"/>
    <path d="M5.6 685.67v31.119l44.806-31.118z" stroke="#fff" stroke-linecap="butt" stroke-linejoin="round" stroke-width="2"/>
    <path d="M5.598 654.553v31.118l44.807-31.119z" fill="#fff"/>
    <path d="M5.598 654.553v31.118l44.807-31.119z" stroke="#fff" stroke-linecap="butt" stroke-linejoin="round" stroke-width="2"/>
    <path d="M5.598 593.836v31.118l44.807-31.118z" fill="#fff"/>
    <path d="M5.598 593.836v31.118l44.807-31.118z" stroke="#fff" stroke-linecap="butt" stroke-linejoin="round" stroke-width="2"/>
    <path d="M5.598 624.955v31.119l44.807-31.119z" fill="#fff"/>
    <path d="M5.598 624.955v31.119l44.807-31.119z" stroke="#fff" stroke-linecap="butt" stroke-linejoin="round" stroke-width="2"/>
  </g>
</svg>
