<svg viewBox="0 0 64 64" xmlns="http://www.w3.org/2000/svg">
  <path
    d="m60 13h-56a2.006 2.006 0 0 0 -2 2v34a2.006 2.006 0 0 0 2 2h56a2.006 2.006 0 0 0 2-2v-34a2.006 2.006 0 0 0 -2-2zm-46 16.5a4.5 4.5 0 1 1 4.5 4.5 4.494 4.494 0 0 1 -4.5-4.5zm31.5 4.5a4.5 4.5 0 1 1 4.5-4.5 4.494 4.494 0 0 1 -4.5 4.5z"
    fill="#d9ccbc"/>
  <path d="m44 51h-24l2-8h20z" fill="#957856"/>
  <path d="m7 23v13h50v-13zm11.5 11a4.5 4.5 0 1 1 4.5-4.5 4.494 4.494 0 0 1 -4.5 4.5zm27 0a4.5 4.5 0 1 1 4.5-4.5 4.494 4.494 0 0 1 -4.5 4.5z" fill="#ffda44"/>
  <path d="m7 19h50v4h-50z" fill="#91cc04"/>
  <path d="m7 36h50v4h-50z" fill="#d80027"/>
  <path d="m27 27h10v5h-10z" fill="#898890"/>
  <circle cx="5" cy="16" r="1"/>
  <circle cx="5" cy="48" r="1"/>
  <circle cx="59" cy="16" r="1"/>
  <circle cx="59" cy="48" r="1"/>
  <path d="m52 43h-6a1 1 0 0 0 0 2h6a1 1 0 0 0 0-2z"/>
  <path d="m56 43h-1a1 1 0 0 0 0 2h1a1 1 0 0 0 0-2z"/>
  <path
    d="m60 12h-56a3 3 0 0 0 -3 3v34a3 3 0 0 0 3 3h56a3 3 0 0 0 3-3v-34a3 3 0 0 0 -3-3zm-38.719 38 1.5-6h18.438l1.5 6zm39.719-1a1 1 0 0 1 -1 1h-15.219l-1.811-7.243a1 1 0 0 0 -.97-.757h-20a1 1 0 0 0 -.97.757l-1.811 7.243h-15.219a1 1 0 0 1 -1-1v-34a1 1 0 0 1 1-1h56a1 1 0 0 1 1 1z"/>
  <path d="m58 19a1 1 0 0 0 -1-1h-50a1 1 0 0 0 -1 1v21a1 1 0 0 0 1 1h50a1 1 0 0 0 1-1zm-2 20h-48v-2h48zm0-4h-48v-11h48zm0-13h-48v-2h48z"/>
  <path d="m24 29.5a5.5 5.5 0 1 0 -5.5 5.5 5.506 5.506 0 0 0 5.5-5.5zm-5.5 3.5a3.5 3.5 0 1 1 3.5-3.5 3.5 3.5 0 0 1 -3.5 3.5z"/>
  <path d="m51 29.5a5.5 5.5 0 1 0 -5.5 5.5 5.506 5.506 0 0 0 5.5-5.5zm-5.5 3.5a3.5 3.5 0 1 1 3.5-3.5 3.5 3.5 0 0 1 -3.5 3.5z"/>
  <path d="m37 26h-10a1 1 0 0 0 -1 1v5a1 1 0 0 0 1 1h10a1 1 0 0 0 1-1v-5a1 1 0 0 0 -1-1zm-1 5h-8v-3h8z"/>
</svg>