<svg id="Capa_1" viewBox="0 0 512 512" xmlns="http://www.w3.org/2000/svg">
  <g>
    <g>
      <path d="m436 200v92.5c0 9.66-7.84 17.5-17.5 17.5l-72.167 10-252.833-10c-9.66 0-17.5-7.84-17.5-17.5v-92.5z" fill="#ffc66c"/>
      <path
        d="m36 50v251.5c0 26.79 21.71 48.5 48.5 48.5h343c26.79 0 48.5-21.71 48.5-48.5v-251.5zm400 242.5c0 9.66-7.84 17.5-17.5 17.5h-325c-9.66 0-17.5-7.84-17.5-17.5v-185c0-9.66 7.84-17.5 17.5-17.5h325c9.66 0 17.5 7.84 17.5 17.5z"
        fill="#feda9b"/>
      <path d="m502 30c0 5.52-2.24 10.52-5.86 14.14s-8.62 5.86-14.14 5.86h-452c-11.05 0-20-8.95-20-20 0-5.52 2.24-10.52 5.86-14.14s8.62-5.86 14.14-5.86h452c11.05 0 20 8.95 20 20z"
        fill="#ffb954"/>
      <path d="m436 107.5v92.5h-360v-92.5c0-9.66 7.84-17.5 17.5-17.5h325c9.66 0 17.5 7.84 17.5 17.5z" fill="#ffc66c"/>
      <path d="m476 301.5v179.19c0 11.77-9.54 21.31-21.31 21.31-5.35 0-10.28-1.98-14.05-5.29s-6.38-7.94-7.08-13.24l-17.57-133.47h11.51c26.79 0 48.5-21.71 48.5-48.5z"
        fill="#ffb954"/>
      <path d="m96.01 350-17.57 133.47c-.7 5.3-3.31 9.93-7.08 13.24s-8.7 5.29-14.05 5.29c-11.77 0-21.31-9.54-21.31-21.31v-179.19c0 26.79 21.71 48.5 48.5 48.5z" fill="#ffb954"/>
      <path d="m296 200.111v19.639c0 11.184-9.066 20.25-20.25 20.25h-39.5c-11.184 0-20.25-9.066-20.25-20.25v-19.639z" fill="#edf2fa"/>
      <g>
        <path d="m296 90.056v19.639c0 11.184-9.066 20.25-20.25 20.25h-39.5c-11.184 0-20.25-9.066-20.25-20.25v-19.639z" fill="#edf2fa"/>
      </g>
    </g>
    <g>
      <path
        d="m512 30c0-16.542-13.458-30-30-30h-452c-16.542 0-30 13.458-30 30 0 15.185 11.343 27.763 26 29.725v241.775 179.189c0 17.265 14.046 31.311 31.311 31.311 15.654 0 29-11.704 31.043-27.224l16.426-124.776h302.44l16.426 124.776c2.043 15.52 15.389 27.224 31.043 27.224 17.265 0 31.311-14.046 31.311-31.311v-179.189-241.775c14.657-1.962 26-14.54 26-29.725zm-46 271.5c0 21.229-17.271 38.5-38.5 38.5h-343c-21.229 0-38.5-17.271-38.5-38.5v-241.5h420zm-397.475 180.666c-.738 5.606-5.559 9.834-11.214 9.834-6.237 0-11.311-5.074-11.311-11.311v-135.2c10.297 9.024 23.766 14.511 38.5 14.511h.107zm386.164 9.834c-5.655 0-10.476-4.228-11.214-9.834l-16.082-122.166h.107c14.734 0 28.203-5.487 38.5-14.51v135.2c0 6.236-5.074 11.31-11.311 11.31zm27.311-452h-452c-5.514 0-10-4.486-10-10s4.486-10 10-10h452c5.514 0 10 4.486 10 10s-4.486 10-10 10z"/>
      <path
        d="m93.5 320h187.5c5.523 0 10-4.477 10-10s-4.477-10-10-10h-187.5c-4.136 0-7.5-3.364-7.5-7.5v-82.5h120v9.75c0 16.68 13.57 30.25 30.25 30.25h39.5c16.68 0 30.25-13.57 30.25-30.25v-9.75h120v82.5c0 4.136-3.364 7.5-7.5 7.5h-37.5c-5.523 0-10 4.477-10 10s4.477 10 10 10h37.5c15.164 0 27.5-12.336 27.5-27.5v-185c0-15.164-12.336-27.5-27.5-27.5h-325c-15.164 0-27.5 12.336-27.5 27.5v185c0 15.164 12.336 27.5 27.5 27.5zm192.5-100.25c0 5.652-4.598 10.25-10.25 10.25h-39.5c-5.652 0-10.25-4.598-10.25-10.25v-9.75h60zm-60-119.75h60v9.694c0 5.652-4.598 10.25-10.25 10.25h-39.5c-5.652 0-10.25-4.598-10.25-10.25zm-132.5 0h112.5v9.694c0 16.68 13.57 30.25 30.25 30.25h39.5c16.68 0 30.25-13.57 30.25-30.25v-9.694h112.5c4.136 0 7.5 3.364 7.5 7.5v82.5h-340v-82.5c0-4.136 3.364-7.5 7.5-7.5z"/>
      <circle cx="330.995" cy="309.995" r="10.005"/>
    </g>
  </g>
</svg>