<svg viewBox="0 -68 496 496" xmlns="http://www.w3.org/2000/svg">
  <defs/>
  <path
    d="M8 352h480V168H8zm400-152c30.93 0 56 25.07 56 56s-25.07 56-56 56-56-25.07-56-56 25.07-56 56-56zm-240 16h160v80H168zm-80-16c30.93 0 56 25.07 56 56s-25.07 56-56 56-56-25.07-56-56 25.07-56 56-56zm0 0"
    fill="#939598"/>
  <path
    d="M64 88H8v80h480V88zm80 56H32v-32h112zm192 0c-8.836 0-16-7.164-16-16s7.164-16 16-16 16 7.164 16 16-7.164 16-16 16zm56 0c-8.836 0-16-7.164-16-16s7.164-16 16-16 16 7.164 16 16-7.164 16-16 16zm56-32c8.836 0 16 7.164 16 16s-7.164 16-16 16-16-7.164-16-16 7.164-16 16-16zm0 0"
    fill="#414042"/>
  <path d="M272 256c0-8.836 7.164-16 16-16h-80c8.836 0 16 7.164 16 16s-7.164 16-16 16h80c-8.836 0-16-7.164-16-16zm0 0" fill="#939598"/>
  <path d="M328 216H168v80h160zm-40 56h-80c-8.836 0-16-7.164-16-16s7.164-16 16-16h80c8.836 0 16 7.164 16 16s-7.164 16-16 16zm0 0" fill="#414042"/>
  <path
    d="M224 256c0 8.836-7.164 16-16 16s-16-7.164-16-16 7.164-16 16-16 16 7.164 16 16zm0 0M304 256c0 8.836-7.164 16-16 16s-16-7.164-16-16 7.164-16 16-16 16 7.164 16 16zm0 0M88 312c30.93 0 56-25.07 56-56s-25.07-56-56-56-56 25.07-56 56 25.07 56 56 56zm0-88c17.672 0 32 14.328 32 32s-14.328 32-32 32-32-14.328-32-32 14.328-32 32-32zm0 0"
    fill="#939598"/>
  <path d="M120 256c0 17.672-14.328 32-32 32s-32-14.328-32-32 14.328-32 32-32 32 14.328 32 32zm0 0" fill="#414042"/>
  <path d="M408 312c30.93 0 56-25.07 56-56s-25.07-56-56-56-56 25.07-56 56 25.07 56 56 56zm0-88c17.672 0 32 14.328 32 32s-14.328 32-32 32-32-14.328-32-32 14.328-32 32-32zm0 0"
    fill="#939598"/>
  <path d="M440 256c0 17.672-14.328 32-32 32s-32-14.328-32-32 14.328-32 32-32 32 14.328 32 32zm0 0" fill="#414042"/>
  <path d="M32 112h112v32H32zm0 0" fill="#939598"/>
  <path
    d="M352 128c0 8.836-7.164 16-16 16s-16-7.164-16-16 7.164-16 16-16 16 7.164 16 16zm0 0M408 128c0 8.836-7.164 16-16 16s-16-7.164-16-16 7.164-16 16-16 16 7.164 16 16zm0 0M464 128c0 8.836-7.164 16-16 16s-16-7.164-16-16 7.164-16 16-16 16 7.164 16 16zm0 0"
    fill="#d80027"/>
  <g fill="#231f20">
    <path
      d="M488 80h-48V24c0-13.254-10.746-24-24-24H80C66.746 0 56 10.746 56 24v56H8a8 8 0 00-8 8v264a8 8 0 008 8h480a8 8 0 008-8V88a8 8 0 00-8-8zM72 24a8 8 0 018-8h336a8 8 0 018 8v56H72zM16 96h464v64H16zm464 248H16V176h464zm0 0"/>
    <path
      d="M288 232h-80c-13.254 0-24 10.746-24 24s10.746 24 24 24h80c13.254 0 24-10.746 24-24s-10.746-24-24-24zm-22.527 16a22.452 22.452 0 000 16h-34.946a22.452 22.452 0 000-16zM208 248a8 8 0 110 16 8 8 0 010-16zm80 16a8 8 0 110-16 8 8 0 010 16zm0 0"/>
    <path
      d="M168 304h160a8 8 0 008-8v-80a8 8 0 00-8-8H168a8 8 0 00-8 8v80a8 8 0 008 8zm8-80h144v64H176zm0 0M88 320c35.348 0 64-28.652 64-64s-28.652-64-64-64-64 28.652-64 64c.04 35.328 28.672 63.96 64 64zm0-112c26.508 0 48 21.492 48 48s-21.492 48-48 48-48-21.492-48-48c.027-26.5 21.5-47.973 48-48zm0 0"/>
    <path
      d="M88 296c22.09 0 40-17.91 40-40s-17.91-40-40-40-40 17.91-40 40c.027 22.082 17.918 39.973 40 40zm0-64c13.254 0 24 10.746 24 24s-10.746 24-24 24-24-10.746-24-24 10.746-24 24-24zm0 0M408 296c22.09 0 40-17.91 40-40s-17.91-40-40-40-40 17.91-40 40c.027 22.082 17.918 39.973 40 40zm0-64c13.254 0 24 10.746 24 24s-10.746 24-24 24-24-10.746-24-24 10.746-24 24-24zm0 0"/>
    <path
      d="M408 320c35.348 0 64-28.652 64-64s-28.652-64-64-64-64 28.652-64 64c.04 35.328 28.672 63.96 64 64zm0-112c26.508 0 48 21.492 48 48s-21.492 48-48 48-48-21.492-48-48c.027-26.5 21.5-47.973 48-48zm0 0M144 104H32a8 8 0 00-8 8v32a8 8 0 008 8h112a8 8 0 008-8v-32a8 8 0 00-8-8zm-8 32H40v-16h96zm0 0M336 104c-13.254 0-24 10.746-24 24s10.746 24 24 24 24-10.746 24-24-10.746-24-24-24zm0 32a8 8 0 110-16 8 8 0 010 16zm0 0M392 104c-13.254 0-24 10.746-24 24s10.746 24 24 24 24-10.746 24-24-10.746-24-24-24zm0 32a8 8 0 110-16 8 8 0 010 16zm0 0M448 104c-13.254 0-24 10.746-24 24s10.746 24 24 24 24-10.746 24-24-10.746-24-24-24zm0 32a8 8 0 110-16 8 8 0 010 16zm0 0M304 312H192a8 8 0 000 16h112a8 8 0 000-16zm0 0M224 200h48a8 8 0 000-16h-48a8 8 0 000 16zm0 0"/>
  </g>
</svg>
