<svg viewBox="0 -68 496 496" xmlns="http://www.w3.org/2000/svg">
  <path
    d="m8 352h480v-184h-480zm400-152c30.929688 0 56 25.070312 56 56s-25.070312 56-56 56-56-25.070312-56-56 25.070312-56 56-56zm-240 16h160v80h-160zm-80-16c30.929688 0 56 25.070312 56 56s-25.070312 56-56 56-56-25.070312-56-56 25.070312-56 56-56zm0 0"
    fill="#939598"/>
  <path
    d="m64 88h-56v80h480v-80zm80 56h-112v-32h112zm192 0c-8.835938 0-16-7.164062-16-16s7.164062-16 16-16 16 7.164062 16 16-7.164062 16-16 16zm56 0c-8.835938 0-16-7.164062-16-16s7.164062-16 16-16 16 7.164062 16 16-7.164062 16-16 16zm56-32c8.835938 0 16 7.164062 16 16s-7.164062 16-16 16-16-7.164062-16-16 7.164062-16 16-16zm0 0"
    fill="#414042"/>
  <path d="m272 256c0-8.835938 7.164062-16 16-16h-80c8.835938 0 16 7.164062 16 16s-7.164062 16-16 16h80c-8.835938 0-16-7.164062-16-16zm0 0" fill="#939598"/>
  <path d="m328 216h-160v80h160zm-40 56h-80c-8.835938 0-16-7.164062-16-16s7.164062-16 16-16h80c8.835938 0 16 7.164062 16 16s-7.164062 16-16 16zm0 0" fill="#414042"/>
  <path d="m224 256c0 8.835938-7.164062 16-16 16s-16-7.164062-16-16 7.164062-16 16-16 16 7.164062 16 16zm0 0" fill="#939598"/>
  <path d="m304 256c0 8.835938-7.164062 16-16 16s-16-7.164062-16-16 7.164062-16 16-16 16 7.164062 16 16zm0 0" fill="#939598"/>
  <path
    d="m88 312c30.929688 0 56-25.070312 56-56s-25.070312-56-56-56-56 25.070312-56 56 25.070312 56 56 56zm0-88c17.671875 0 32 14.328125 32 32s-14.328125 32-32 32-32-14.328125-32-32 14.328125-32 32-32zm0 0"
    fill="#939598"/>
  <path d="m120 256c0 17.671875-14.328125 32-32 32s-32-14.328125-32-32 14.328125-32 32-32 32 14.328125 32 32zm0 0" fill="#414042"/>
  <path
    d="m408 312c30.929688 0 56-25.070312 56-56s-25.070312-56-56-56-56 25.070312-56 56 25.070312 56 56 56zm0-88c17.671875 0 32 14.328125 32 32s-14.328125 32-32 32-32-14.328125-32-32 14.328125-32 32-32zm0 0"
    fill="#939598"/>
  <path d="m440 256c0 17.671875-14.328125 32-32 32s-32-14.328125-32-32 14.328125-32 32-32 32 14.328125 32 32zm0 0" fill="#414042"/>
  <path d="m32 112h112v32h-112zm0 0" fill="#939598"/>
  <path d="m352 128c0 8.835938-7.164062 16-16 16s-16-7.164062-16-16 7.164062-16 16-16 16 7.164062 16 16zm0 0" fill="#d80027"/>
  <path d="m408 128c0 8.835938-7.164062 16-16 16s-16-7.164062-16-16 7.164062-16 16-16 16 7.164062 16 16zm0 0" fill="#d80027"/>
  <path d="m464 128c0 8.835938-7.164062 16-16 16s-16-7.164062-16-16 7.164062-16 16-16 16 7.164062 16 16zm0 0" fill="#d80027"/>
  <g fill="#231f20">
    <path
      d="m488 80h-48v-56c0-13.253906-10.746094-24-24-24h-336c-13.253906 0-24 10.746094-24 24v56h-48c-4.417969 0-8 3.582031-8 8v264c0 4.417969 3.582031 8 8 8h480c4.417969 0 8-3.582031 8-8v-264c0-4.417969-3.582031-8-8-8zm-416-56c0-4.417969 3.582031-8 8-8h336c4.417969 0 8 3.582031 8 8v56h-352zm-56 72h464v64h-464zm464 248h-464v-168h464zm0 0"/>
    <path
      d="m288 232h-80c-13.253906 0-24 10.746094-24 24s10.746094 24 24 24h80c13.253906 0 24-10.746094 24-24s-10.746094-24-24-24zm-22.527344 16c-1.964844 5.152344-1.964844 10.847656 0 16h-34.945312c1.964844-5.152344 1.964844-10.847656 0-16zm-57.472656 0c4.417969 0 8 3.582031 8 8s-3.582031 8-8 8-8-3.582031-8-8 3.582031-8 8-8zm80 16c-4.417969 0-8-3.582031-8-8s3.582031-8 8-8 8 3.582031 8 8-3.582031 8-8 8zm0 0"/>
    <path d="m168 304h160c4.417969 0 8-3.582031 8-8v-80c0-4.417969-3.582031-8-8-8h-160c-4.417969 0-8 3.582031-8 8v80c0 4.417969 3.582031 8 8 8zm8-80h144v64h-144zm0 0"/>
    <path
      d="m88 320c35.347656 0 64-28.652344 64-64s-28.652344-64-64-64-64 28.652344-64 64c.039062 35.328125 28.671875 63.960938 64 64zm0-112c26.507812 0 48 21.492188 48 48s-21.492188 48-48 48-48-21.492188-48-48c.027344-26.5 21.5-47.972656 48-48zm0 0"/>
    <path
      d="m88 296c22.089844 0 40-17.910156 40-40s-17.910156-40-40-40-40 17.910156-40 40c.027344 22.082031 17.917969 39.972656 40 40zm0-64c13.253906 0 24 10.746094 24 24s-10.746094 24-24 24-24-10.746094-24-24 10.746094-24 24-24zm0 0"/>
    <path
      d="m408 296c22.089844 0 40-17.910156 40-40s-17.910156-40-40-40-40 17.910156-40 40c.027344 22.082031 17.917969 39.972656 40 40zm0-64c13.253906 0 24 10.746094 24 24s-10.746094 24-24 24-24-10.746094-24-24 10.746094-24 24-24zm0 0"/>
    <path
      d="m408 320c35.347656 0 64-28.652344 64-64s-28.652344-64-64-64-64 28.652344-64 64c.039062 35.328125 28.671875 63.960938 64 64zm0-112c26.507812 0 48 21.492188 48 48s-21.492188 48-48 48-48-21.492188-48-48c.027344-26.5 21.5-47.972656 48-48zm0 0"/>
    <path d="m144 104h-112c-4.417969 0-8 3.582031-8 8v32c0 4.417969 3.582031 8 8 8h112c4.417969 0 8-3.582031 8-8v-32c0-4.417969-3.582031-8-8-8zm-8 32h-96v-16h96zm0 0"/>
    <path
      d="m336 104c-13.253906 0-24 10.746094-24 24s10.746094 24 24 24 24-10.746094 24-24-10.746094-24-24-24zm0 32c-4.417969 0-8-3.582031-8-8s3.582031-8 8-8 8 3.582031 8 8-3.582031 8-8 8zm0 0"/>
    <path
      d="m392 104c-13.253906 0-24 10.746094-24 24s10.746094 24 24 24 24-10.746094 24-24-10.746094-24-24-24zm0 32c-4.417969 0-8-3.582031-8-8s3.582031-8 8-8 8 3.582031 8 8-3.582031 8-8 8zm0 0"/>
    <path
      d="m448 104c-13.253906 0-24 10.746094-24 24s10.746094 24 24 24 24-10.746094 24-24-10.746094-24-24-24zm0 32c-4.417969 0-8-3.582031-8-8s3.582031-8 8-8 8 3.582031 8 8-3.582031 8-8 8zm0 0"/>
    <path d="m304 312h-112c-4.417969 0-8 3.582031-8 8s3.582031 8 8 8h112c4.417969 0 8-3.582031 8-8s-3.582031-8-8-8zm0 0"/>
    <path d="m224 200h48c4.417969 0 8-3.582031 8-8s-3.582031-8-8-8h-48c-4.417969 0-8 3.582031-8 8s3.582031 8 8 8zm0 0"/>
  </g>
</svg>