<svg viewBox="0 0 64 64" xmlns="http://www.w3.org/2000/svg">
  <defs/>
  <path
    d="M60 13H4a2.006 2.006 0 00-2 2v34a2.006 2.006 0 002 2h56a2.006 2.006 0 002-2V15a2.006 2.006 0 00-2-2zM14 29.5a4.5 4.5 0 114.5 4.5 4.494 4.494 0 01-4.5-4.5zM45.5 34a4.5 4.5 0 114.5-4.5 4.494 4.494 0 01-4.5 4.5z"
    fill="#d9ccbc"/>
  <path d="M44 51H20l2-8h20z" fill="#957856"/>
  <path d="M7 23v13h50V23zm11.5 11a4.5 4.5 0 114.5-4.5 4.494 4.494 0 01-4.5 4.5zm27 0a4.5 4.5 0 114.5-4.5 4.494 4.494 0 01-4.5 4.5z" fill="#ffda44"/>
  <path d="M7 19h50v4H7z" fill="#91cc04"/>
  <path d="M7 36h50v4H7z" fill="#d80027"/>
  <path d="M27 27h10v5H27z" fill="#898890"/>
  <circle cx="5" cy="16" r="1"/>
  <circle cx="5" cy="48" r="1"/>
  <circle cx="59" cy="16" r="1"/>
  <circle cx="59" cy="48" r="1"/>
  <path d="M52 43h-6a1 1 0 000 2h6a1 1 0 000-2zM56 43h-1a1 1 0 000 2h1a1 1 0 000-2z"/>
  <path
    d="M60 12H4a3 3 0 00-3 3v34a3 3 0 003 3h56a3 3 0 003-3V15a3 3 0 00-3-3zM21.281 50l1.5-6h18.438l1.5 6zM61 49a1 1 0 01-1 1H44.781l-1.811-7.243A1 1 0 0042 42H22a1 1 0 00-.97.757L19.219 50H4a1 1 0 01-1-1V15a1 1 0 011-1h56a1 1 0 011 1z"/>
  <path d="M58 19a1 1 0 00-1-1H7a1 1 0 00-1 1v21a1 1 0 001 1h50a1 1 0 001-1zm-2 20H8v-2h48zm0-4H8V24h48zm0-13H8v-2h48z"/>
  <path
    d="M24 29.5a5.5 5.5 0 10-5.5 5.5 5.506 5.506 0 005.5-5.5zM18.5 33a3.5 3.5 0 113.5-3.5 3.5 3.5 0 01-3.5 3.5zM51 29.5a5.5 5.5 0 10-5.5 5.5 5.506 5.506 0 005.5-5.5zM45.5 33a3.5 3.5 0 113.5-3.5 3.5 3.5 0 01-3.5 3.5zM37 26H27a1 1 0 00-1 1v5a1 1 0 001 1h10a1 1 0 001-1v-5a1 1 0 00-1-1zm-1 5h-8v-3h8z"/>
</svg>
