<?xml version="1.0"?>
<svg height="496" width="496" xmlns="http://www.w3.org/2000/svg">

 <g class="layer">
  <title>Layer 1</title>
  <path d="m8,352l480,0l0,-184l-480,0l0,184zm400,-152c30.929993,0 56,25.070007 56,56s-25.070007,56 -56,56s-56,-25.070007 -56,-56s25.070007,-56 56,-56zm-240,16l160,0l0,80l-160,0l0,-80zm-80,-16c30.93,0 56,25.070007 56,56s-25.07,56 -56,56s-56,-25.070007 -56,-56s25.07,-56 56,-56zm0,0" fill="#939598" id="svg_1"/>
  <path d="m64,88l-56,0l0,80l480,0l0,-80l-424,0zm80,56l-112,0l0,-32l112,0l0,32zm192,0c-8.835999,0 -16,-7.164001 -16,-16s7.164001,-16 16,-16s16,7.164001 16,16s-7.164001,16 -16,16zm56,0c-8.835999,0 -16,-7.164001 -16,-16s7.164001,-16 16,-16s16,7.164001 16,16s-7.164001,16 -16,16zm56,-32c8.835999,0 16,7.164001 16,16s-7.164001,16 -16,16s-16,-7.164001 -16,-16s7.164001,-16 16,-16zm0,0" fill="#414042" id="svg_2"/>
  <path d="m272,256c0,-8.835999 7.164001,-16 16,-16l-80,0c8.835999,0 16,7.164001 16,16s-7.164001,16 -16,16l80,0c-8.835999,0 -16,-7.164001 -16,-16zm0,0" fill="#939598" id="svg_3"/>
  <path d="m328,216l-160,0l0,80l160,0l0,-80zm-40,56l-80,0c-8.835999,0 -16,-7.164001 -16,-16s7.164001,-16 16,-16l80,0c8.835999,0 16,7.164001 16,16s-7.164001,16 -16,16zm0,0" fill="#414042" id="svg_4"/>
  <path d="m224,256c0,8.835999 -7.164001,16 -16,16s-16,-7.164001 -16,-16s7.164001,-16 16,-16s16,7.164001 16,16zm0,0m80,0c0,8.835999 -7.164001,16 -16,16s-16,-7.164001 -16,-16s7.164001,-16 16,-16s16,7.164001 16,16zm0,0m-216,56c30.93,0 56,-25.070007 56,-56s-25.07,-56 -56,-56s-56,25.070007 -56,56s25.07,56 56,56zm0,-88c17.671997,0 32,14.328003 32,32s-14.328003,32 -32,32s-32,-14.328003 -32,-32s14.328003,-32 32,-32zm0,0" fill="#939598" id="svg_5"/>
  <path d="m120,256c0,17.671997 -14.328003,32 -32,32s-32,-14.328003 -32,-32s14.328003,-32 32,-32s32,14.328003 32,32zm0,0" fill="#414042" id="svg_6"/>
  <path d="m408,312c30.929993,0 56,-25.070007 56,-56s-25.070007,-56 -56,-56s-56,25.070007 -56,56s25.070007,56 56,56zm0,-88c17.671997,0 32,14.328003 32,32s-14.328003,32 -32,32s-32,-14.328003 -32,-32s14.328003,-32 32,-32zm0,0" fill="#939598" id="svg_7"/>
  <path d="m440,256c0,17.671997 -14.328003,32 -32,32s-32,-14.328003 -32,-32s14.328003,-32 32,-32s32,14.328003 32,32zm0,0" fill="#414042" id="svg_8"/>
  <path d="m32,112l112,0l0,32l-112,0l0,-32zm0,0" fill="#939598" id="svg_9"/>
  <g fill="#231f20" id="svg_11">
   <path d="m488,80l-48,0l0,-56c0,-13.254 -10.746002,-24 -24,-24l-336,0c-13.253998,0 -24,10.746 -24,24l0,56l-48,0a8,8 0 0 0 -8,8l0,264a8,8 0 0 0 8,8l480,0a8,8 0 0 0 8,-8l0,-264a8,8 0 0 0 -8,-8zm-416,-56a8,8 0 0 1 8,-8l336,0a8,8 0 0 1 8,8l0,56l-352,0l0,-56zm-56,72l464,0l0,64l-464,0l0,-64zm464,248l-464,0l0,-168l464,0l0,168zm0,0" id="svg_12"/>
   <path d="m288,232l-80,0c-13.253998,0 -24,10.746002 -24,24s10.746002,24 24,24l80,0c13.253998,0 24,-10.746002 24,-24s-10.746002,-24 -24,-24zm-22.527008,16a22.452,22.452 0 0 0 0,16l-34.945999,0a22.452,22.452 0 0 0 0,-16l34.945999,0zm-57.472992,0a8,8 0 1 1 0,16a8,8 0 0 1 0,-16zm80,16a8,8 0 1 1 0,-16a8,8 0 0 1 0,16zm0,0" id="svg_13"/>
   <path d="m168,304l160,0a8,8 0 0 0 8,-8l0,-80a8,8 0 0 0 -8,-8l-160,0a8,8 0 0 0 -8,8l0,80a8,8 0 0 0 8,8zm8,-80l144,0l0,64l-144,0l0,-64zm0,0m-88,96c35.348,0 64,-28.652008 64,-64s-28.652,-64 -64,-64s-64,28.651993 -64,64c0.040001,35.328003 28.672001,63.959991 64,64zm0,-112c26.508003,0 48,21.492004 48,48s-21.491997,48 -48,48s-48,-21.492004 -48,-48c0.027,-26.5 21.5,-47.973007 48,-48zm0,0" id="svg_14"/>
   <path d="m88,296c22.089996,0 40,-17.910004 40,-40s-17.910004,-40 -40,-40s-40,17.910004 -40,40c0.027,22.082001 17.917999,39.972992 40,40zm0,-64c13.253998,0 24,10.746002 24,24s-10.746002,24 -24,24s-24,-10.746002 -24,-24s10.746002,-24 24,-24zm0,0m320,64c22.089996,0 40,-17.910004 40,-40s-17.910004,-40 -40,-40s-40,17.910004 -40,40c0.027008,22.082001 17.917999,39.972992 40,40zm0,-64c13.253998,0 24,10.746002 24,24s-10.746002,24 -24,24s-24,-10.746002 -24,-24s10.746002,-24 24,-24zm0,0" id="svg_15"/>
   <path d="m408,320c35.347992,0 64,-28.652008 64,-64s-28.652008,-64 -64,-64s-64,28.651993 -64,64c0.040009,35.328003 28.671997,63.959991 64,64zm0,-112c26.507996,0 48,21.492004 48,48s-21.492004,48 -48,48s-48,-21.492004 -48,-48c0.027008,-26.5 21.5,-47.973007 48,-48zm0,0m-264,-104l-112,0a8,8 0 0 0 -8,8l0,32a8,8 0 0 0 8,8l112,0a8,8 0 0 0 8,-8l0,-32a8,8 0 0 0 -8,-8zm-8,32l-96,0l0,-16l96,0l0,16zm0,0m200,-32c-13.253998,0 -24,10.746002 -24,24s10.746002,24 24,24s24,-10.746002 24,-24s-10.746002,-24 -24,-24zm0,32a8,8 0 1 1 0,-16a8,8 0 0 1 0,16zm0,0m56,-32c-13.253998,0 -24,10.746002 -24,24s10.746002,24 24,24s24,-10.746002 24,-24s-10.746002,-24 -24,-24zm0,32a8,8 0 1 1 0,-16a8,8 0 0 1 0,16zm0,0m56,-32c-13.253998,0 -24,10.746002 -24,24s10.746002,24 24,24s24,-10.746002 24,-24s-10.746002,-24 -24,-24zm0,32a8,8 0 1 1 0,-16a8,8 0 0 1 0,16zm0,0m-144,176l-112,0a8,8 0 0 0 0,16l112,0a8,8 0 0 0 0,-16zm0,0m-80,-112l48,0a8,8 0 0 0 0,-16l-48,0a8,8 0 0 0 0,16zm0,0" id="svg_16"/>
   <path d="m352,128c0,8.835999 -7.164001,16 -16,16s-16,-7.164001 -16,-16s7.164001,-16 16,-16s16,7.164001 16,16zm0,0m56,0c0,8.835999 -7.164001,16 -16,16s-16,-7.164001 -16,-16s7.164001,-16 16,-16s16,7.164001 16,16zm0,0m56,0c0,8.835999 -7.164001,16 -16,16s-16,-7.164001 -16,-16s7.164001,-16 16,-16s16,7.164001 16,16zm0,0" fill="#414042" id="svg_10"/>
  </g>
 </g>
</svg>